Coordinates
version=1
nRows=16
nColumns=42
inDegrees=yes

Units are S.I. units (second, meters, Newtons, ...)
If the header above contains a line with 'inDegrees', this indicates whether rotational values are in degrees (yes) or radians (no).

endheader
time	pelvis_tilt	pelvis_list	pelvis_rotation	pelvis_tx	pelvis_ty	pelvis_tz	hip_flexion_r	hip_adduction_r	hip_rotation_r	knee_angle_r	knee_angle_r_beta	ankle_angle_r	subtalar_angle_r	mtp_angle_r	hip_flexion_l	hip_adduction_l	hip_rotation_l	knee_angle_l	knee_angle_l_beta	ankle_angle_l	subtalar_angle_l	mtp_angle_l	lumbar_extension	lumbar_bending	lumbar_rotation	sh_tx_r	sh_ty_r	sh_tz_r	sh_plane_elev_r	sh_elev_r	sh_axial_rot_r	elbow_flex_r	pro_sup_r	sh_tx_l	sh_ty_l	sh_tz_l	sh_plane_elev_l	sh_elev_l	sh_axial_rot_l	elbow_flex_l	pro_sup_l
      5.73333330	     -3.75916592	     -1.38930027	     -0.73720679	      0.33072378	      0.93081600	     -0.07878105	      3.65259778	     -6.21065259	     -0.68765330	      0.55694226	      0.00972048	      3.15694466	      6.01415326	     -7.49999987	      0.66894825	     -3.27531600	    -10.08828501	      0.46864828	      0.00817946	     12.18148064	      5.56614696	     -7.49999987	     -0.95663953	      0.38643669	     -7.61688356	      0.00610240	     -0.01760039	     -0.00649309	    -11.40529634	      2.43641219	     -0.61147280	     26.87811160	     77.51357731	      0.00061026	     -0.01038143	     -0.00429638	     13.21027714	      6.00359116	     -2.74262588	     25.30725431	     61.78906940
      5.75000000	     -3.66925069	     -1.37450521	     -0.80493957	      0.33108129	      0.93414881	     -0.07890393	      3.62209241	     -6.21033021	     -0.72056041	      0.58979175	      0.01029381	      3.04607832	      6.02140478	     -7.49999987	      0.58652597	     -3.29415835	    -10.13078222	      0.46449344	      0.00810694	     12.14793435	      5.53654819	     -7.49999987	     -1.06977056	      0.36842592	     -7.42345492	      0.00625767	     -0.01761219	     -0.00655008	     -9.70046385	      2.37953184	     -0.92753412	     26.88439791	     76.57683253	      0.00093272	     -0.01028494	     -0.00431996	     14.16236124	      6.11437059	     -2.85183937	     25.10257462	     61.49049085
      5.76666670	     -3.68418937	     -1.38473127	     -0.86855504	      0.33092801	      0.93108806	     -0.07906763	      3.68614589	     -6.18103491	     -0.71778420	      0.61613554	      0.01075359	      3.07724011	      6.03025817	     -7.49999987	      0.61971629	     -3.33002147	    -10.13562771	      0.46430827	      0.00810371	     12.11943432	      5.32805583	     -7.49999987	     -1.00814418	      0.33926538	     -7.39556489	      0.00720064	     -0.01763337	     -0.00651282	     -7.17728793	      2.47479656	     -1.43139642	     26.77443688	     74.12256468	      0.00094954	     -0.01019364	     -0.00444668	     15.67569842	      6.31559789	     -2.94095322	     24.58540452	     60.81162874
      5.78333330	     -3.48548646	     -1.42425836	     -0.97904160	      0.33114977	      0.93149282	     -0.07893798	      3.52310615	     -6.12125763	     -0.60137491	      0.65540565	      0.01143899	      3.04217100	      5.98539419	     -7.49999987	      0.38221635	     -3.38742627	    -10.32143202	      0.46463557	      0.00810942	     12.24004861	      5.49306867	     -7.49999987	     -1.29273219	      0.39376835	     -6.89450021	      0.00665208	     -0.01761487	     -0.00645060	     -6.31049182	      2.55270957	     -1.55567944	     27.24994266	     74.04305258	      0.00258274	     -0.01025997	     -0.00443175	     16.13354729	      6.24238913	     -3.09940838	     24.72756341	     60.64921686
      5.80000000	     -3.73762027	     -1.44450398	     -1.11002869	      0.33094291	      0.93106935	     -0.07891464	      3.89064212	     -6.06681546	     -0.33548184	      0.74751217	      0.01304655	      3.15062538	      5.93698214	     -7.49999987	      0.64473280	     -3.42425565	    -10.19704983	      0.47398913	      0.00827267	     12.29201128	      5.17785670	     -7.49999987	     -1.16942877	      0.51931101	     -6.53717307	      0.00483099	     -0.01769211	     -0.00633141	     -5.59033110	      2.63027041	     -1.36897232	     28.04939056	     73.81661414	      0.00191700	     -0.01129926	     -0.00445727	     16.56360571	      6.31786340	     -2.95112524	     25.55720930	     60.63655053
      5.81666670	     -3.48377492	     -1.48612911	     -1.08122913	      0.33114487	      0.93165573	     -0.07899873	      3.63472526	     -5.99284339	     -0.46086033	      0.76469929	      0.01334652	      2.97659686	      5.70610296	     -7.49999987	      0.37035970	     -3.48231619	    -10.43221649	      0.47593776	      0.00830668	     12.26709729	      5.45453664	     -7.49999987	     -1.26456509	      0.58293725	     -7.47117861	      0.00923599	     -0.01764924	     -0.00642179	     -5.62276030	      2.42749496	     -2.29035898	     27.93782536	     79.91091955	      0.00148709	     -0.01099095	     -0.00432175	     14.56594487	      5.93039673	     -2.53419071	     25.01105662	     60.32965575
      5.83333330	     -3.45866986	     -1.50345760	     -1.16671492	      0.33087963	      0.93166484	     -0.07906374	      3.66706218	     -5.94535534	     -0.43035588	      0.80732392	      0.01409046	      2.88455661	      5.53447014	     -7.49999987	      0.33332725	     -3.50114261	    -10.46592138	      0.47141375	      0.00822772	     12.23678813	      5.26887937	     -7.49999987	     -1.34323778	      0.64545297	     -7.23293718	      0.00874848	     -0.01767116	     -0.00638646	     -5.24216119	      2.47348422	     -2.21322372	     28.28880796	     79.47518338	      0.00202222	     -0.01149211	     -0.00428698	     14.93329174	      5.94563631	     -2.36366534	     25.34503000	     60.37265413
      5.85000000	     -3.36336068	     -1.52058105	     -1.23067453	      0.33106831	      0.93190799	     -0.07893541	      3.59648067	     -5.92023709	     -0.44403209	      0.84549251	      0.01475663	      2.90698613	      5.54903200	     -7.49999987	      0.21598750	     -3.52343947	    -10.54514942	      0.47356874	      0.00826533	     12.31892484	      5.34658494	     -7.49999987	     -1.38013481	      0.64832189	     -7.17529611	      0.00921277	     -0.01763921	     -0.00634223	     -4.77987323	      2.52133155	     -2.26913127	     28.23562349	     79.15157404	      0.00270329	     -0.01141177	     -0.00434776	     15.55135203	      5.96946063	     -2.15623323	     25.04891829	     60.44713278
      5.86666670	     -3.37559529	     -1.55106798	     -1.27307598	      0.33077111	      0.93211707	     -0.07885832	      3.61926861	     -5.89100119	     -0.43300194	      0.87733979	      0.01531247	      2.84793175	      5.48056951	     -7.49999987	      0.22509985	     -3.56438443	    -10.58175256	      0.47668621	      0.00831974	     12.33779492	      5.32124081	     -7.49999987	     -1.31027723	      0.68862374	     -7.36596055	      0.00990018	     -0.01761595	     -0.00631014	     -3.97331291	      2.62829471	     -2.55634075	     28.31741141	     78.14126611	      0.00219982	     -0.01165208	     -0.00441656	     16.74908782	      6.14187589	     -2.27182198	     24.72733686	     60.34493818
      5.88333330	     -3.36358152	     -1.55553329	     -1.38888428	      0.33085471	      0.93244411	     -0.07861707	      3.62536840	     -5.90470266	     -0.47574397	      0.91342917	      0.01594235	      2.85312096	      5.58545520	     -7.49999987	      0.18915983	     -3.57163722	    -10.74227977	      0.47530115	      0.00829557	     12.38962495	      5.35777286	     -7.49999987	     -1.34621709	      0.70070095	     -7.25677593	      0.00926268	     -0.01759042	     -0.00628029	     -3.52946798	      2.74726858	     -2.77908294	     28.37425891	     77.30695204	      0.00228504	     -0.01180397	     -0.00440846	     17.34027944	      6.19337737	     -2.44656917	     24.75063297	     60.40076199
      5.90000000	     -3.35161849	     -1.56134156	     -1.52461105	      0.33046878	      0.93240925	     -0.07859748	      3.64147106	     -5.91906603	     -0.44827129	      0.94250599	      0.01644983	      2.86917893	      5.59671695	     -7.49999987	      0.15341766	     -3.57544953	    -10.83730475	      0.47274053	      0.00825088	     12.41472630	      5.32539600	     -7.49999987	     -1.34464931	      0.73861436	     -7.32982495	      0.00951762	     -0.01755030	     -0.00621955	     -3.25737449	      2.89954869	     -2.85826939	     28.56763044	     77.16704434	      0.00208537	     -0.01197187	     -0.00442026	     17.89070465	      6.24205890	     -2.61124181	     24.66747805	     60.52185999
      5.91666670	     -3.24538374	     -1.57165849	     -1.59603465	      0.33062322	      0.93245809	     -0.07848024	      3.53146596	     -5.93510017	     -0.40557203	      0.94844200	      0.01655344	      2.88348019	      5.53957474	     -7.49999987	      0.01848723	     -3.58614478	    -10.80132445	      0.46967986	      0.00819746	     12.37678753	      5.13472928	     -7.49999987	     -1.42752572	      0.79972702	     -7.28785749	      0.00970088	     -0.01750356	     -0.00612438	     -3.20034580	      3.09841163	     -2.86086559	     28.96452758	     77.02170890	      0.00239002	     -0.01228585	     -0.00442343	     18.16125559	      6.27409522	     -2.51559161	     24.74598282	     60.60766109
      5.93333330	     -3.24392456	     -1.59738964	     -1.67307021	      0.33423166	      0.93214169	     -0.07400906	      3.50744690	     -5.83554764	     -0.34823150	      0.96323538	      0.01681163	      2.90296474	      5.56087892	     -7.49999987	     -0.05384095	     -3.67162444	    -10.80334866	      0.48969426	      0.00854678	     12.38964335	      5.13001591	     -7.49999987	     -1.37869821	      0.75709187	     -7.33550322	      0.00904578	     -0.01754337	     -0.00606988	     -3.23563234	      3.17716142	     -2.87556105	     28.98333752	     77.03110533	      0.00199210	     -0.01224485	     -0.00438364	     18.17030250	      6.29581656	     -2.50477125	     24.74074518	     60.61783887
      5.95000000	     -3.64419084	     -1.64807205	     -1.81869956	      0.33214041	      0.93089995	     -0.07408687	      5.01635306	     -5.75950950	     -0.29825008	      2.99664876	      0.05230139	      3.78361878	      4.94136363	     -7.49999987	      1.24524214	     -3.96036763	    -10.68751939	      2.23263635	      0.03896686	     13.13947560	      4.21201766	     -7.49999987	     -2.00578380	      0.95639620	     -6.64779593	      0.00352516	     -0.00982860	     -0.00540304	     -2.03224244	      4.56083217	     -2.34256356	     30.57149988	     76.49463647	      0.00034153	     -0.00488290	     -0.00509710	     19.11764279	      7.28824230	     -1.97634925	     26.56636956	     60.69973558
      5.96666670	     -3.03447136	     -1.65283601	     -2.08771683	      0.33382390	      0.93524268	     -0.07365313	      3.30376846	     -5.68886957	      0.00794703	      1.05057114	      0.01833593	      2.98609019	      5.42003816	     -7.49999987	     -0.49642520	     -3.83768367	    -11.22017321	      0.46103941	      0.00804666	     12.48556257	      5.25162779	     -7.49999987	     -1.56124571	      0.94428663	     -8.06380184	      0.00812428	     -0.01730149	     -0.00598621	     -3.66046736	      3.49647665	     -3.69070170	     29.50733261	     77.01202582	     -0.00181125	     -0.01272767	     -0.00445234	     20.08872755	      6.65209914	     -2.37823044	     24.01423392	     60.77817664
      5.98333330	     -2.84915329	     -1.67641153	     -2.29819433	      0.33386064	      0.93259531	     -0.07351348	      3.11264179	     -5.63533115	      0.17985145	      1.04347101	      0.01821200	      3.00662088	      5.40786919	     -7.49999987	     -0.78609898	     -3.89689689	    -11.40641730	      0.44695762	      0.00780088	     12.53165898	      5.25290826	     -7.49999987	     -1.77010061	      0.99500897	     -8.00738325	      0.00664480	     -0.01724315	     -0.00586989	     -5.28522768	      3.71527792	     -3.24188595	     29.90293075	     75.31090886	     -0.00214030	     -0.01297866	     -0.00438445	     20.82060201	      6.70747586	     -3.44278578	     24.28038948	     60.80347624
